HIERARCHY
ROOT Hips
{
	OFFSET 0.000000 91.740540 0.000000
	CHANNELS 6 Xposition Yposition Zposition Xrotation Yrotation Zrotation
	JOINT Spine
	{
		OFFSET 0.000013 10.005943 -0.000000
		CHANNELS 6 Xposition Yposition Zposition Xrotation Yrotation Zrotation
		JOINT Spine1
		{
			OFFSET -0.000001 21.665001 0.000000
			CHANNELS 6 Xposition Yposition Zposition Xrotation Yrotation Zrotation
			JOINT Neck
			{
				OFFSET -0.000001 25.832993 0.000000
				CHANNELS 6 Xposition Yposition Zposition Xrotation Yrotation Zrotation
				JOINT Head
				{
					OFFSET -0.000000 13.820404 2.436909
					CHANNELS 6 Xposition Yposition Zposition Xrotation Yrotation Zrotation
					JOINT HeadNub
					{
						OFFSET -0.000001 21.600510 0.000000
						CHANNELS 6 Xposition Yposition Zposition Xrotation Yrotation Zrotation
						End Site
						{
							OFFSET 0.000001 0.000000 21.600515
						}
					}
				}
			}
			JOINT LeftShoulder
			{
				OFFSET 3.044999 21.665009 -0.000000
				CHANNELS 6 Xposition Yposition Zposition Xrotation Yrotation Zrotation
				JOINT LeftArm
				{
					OFFSET 15.550001 0.000000 -0.000001
					CHANNELS 6 Xposition Yposition Zposition Xrotation Yrotation Zrotation
					JOINT LeftForeArm
					{
						OFFSET 26.969997 0.000061 -0.000001
						CHANNELS 6 Xposition Yposition Zposition Xrotation Yrotation Zrotation
						JOINT LeftHand
						{
							OFFSET 26.562424 0.000000 -0.000002
							CHANNELS 6 Xposition Yposition Zposition Xrotation Yrotation Zrotation
							JOINT LeftHandThumb1
							{
								OFFSET 3.791183 -1.249039 3.194315
								CHANNELS 6 Xposition Yposition Zposition Xrotation Yrotation Zrotation
								JOINT LeftHandThumb2
								{
									OFFSET 3.559998 0.000000 0.000000
									CHANNELS 6 Xposition Yposition Zposition Xrotation Yrotation Zrotation
									JOINT LeftHandThumb3
									{
										OFFSET 2.582520 0.000000 0.000000
										CHANNELS 6 Xposition Yposition Zposition Xrotation Yrotation Zrotation
										End Site
										{
											OFFSET 0.000000 0.000000 2.582520
										}
									}
								}
							}
							JOINT LeftHandIndex1
							{
								OFFSET 9.811699 0.000000 2.347278
								CHANNELS 6 Xposition Yposition Zposition Xrotation Yrotation Zrotation
								JOINT LeftHandIndex2
								{
									OFFSET 3.256775 0.000000 -0.000000
									CHANNELS 6 Xposition Yposition Zposition Xrotation Yrotation Zrotation
									JOINT LeftHandIndex3
									{
										OFFSET 2.772133 0.000000 0.000000
										CHANNELS 6 Xposition Yposition Zposition Xrotation Yrotation Zrotation
										End Site
										{
											OFFSET 0.000000 -2.772125 0.000000
										}
									}
								}
							}
							JOINT LeftHandMiddle1
							{
								OFFSET 10.341545 0.000000 0.312984
								CHANNELS 6 Xposition Yposition Zposition Xrotation Yrotation Zrotation
								JOINT LeftHandMiddle2
								{
									OFFSET 3.430656 0.000000 -0.000000
									CHANNELS 6 Xposition Yposition Zposition Xrotation Yrotation Zrotation
									JOINT LeftHandMiddle3
									{
										OFFSET 2.954636 0.000000 -0.000000
										CHANNELS 6 Xposition Yposition Zposition Xrotation Yrotation Zrotation
										End Site
										{
											OFFSET 0.000000 -2.954636 0.000000
										}
									}
								}
							}
							JOINT LeftHandRing1
							{
								OFFSET 9.988403 0.000000 -1.780175
								CHANNELS 6 Xposition Yposition Zposition Xrotation Yrotation Zrotation
								JOINT LeftHandRing2
								{
									OFFSET 3.241203 0.000000 -0.000000
									CHANNELS 6 Xposition Yposition Zposition Xrotation Yrotation Zrotation
									JOINT LeftHandRing3
									{
										OFFSET 2.763329 0.000000 -0.000000
										CHANNELS 6 Xposition Yposition Zposition Xrotation Yrotation Zrotation
										End Site
										{
											OFFSET 0.000000 -2.763336 0.000000
										}
									}
								}
							}
							JOINT LeftHandPinky1
							{
								OFFSET 8.983940 0.000000 -3.651950
								CHANNELS 6 Xposition Yposition Zposition Xrotation Yrotation Zrotation
								JOINT LeftHandPinky2
								{
									OFFSET 2.784111 0.000000 -0.000000
									CHANNELS 6 Xposition Yposition Zposition Xrotation Yrotation Zrotation
									JOINT LeftHandPinky3
									{
										OFFSET 1.994583 0.000000 0.000000
										CHANNELS 6 Xposition Yposition Zposition Xrotation Yrotation Zrotation
										End Site
										{
											OFFSET 0.000000 -1.994583 0.000000
										}
									}
								}
							}
						}
					}
				}
			}
			JOINT RightShoulder
			{
				OFFSET -3.045001 21.664993 0.000000
				CHANNELS 6 Xposition Yposition Zposition Xrotation Yrotation Zrotation
				JOINT RightArm
				{
					OFFSET -15.550001 0.000061 0.000001
					CHANNELS 6 Xposition Yposition Zposition Xrotation Yrotation Zrotation
					JOINT RightForeArm
					{
						OFFSET -26.970001 0.000015 0.000115
						CHANNELS 6 Xposition Yposition Zposition Xrotation Yrotation Zrotation
						JOINT RightHand
						{
							OFFSET -26.562420 -0.000031 0.000113
							CHANNELS 6 Xposition Yposition Zposition Xrotation Yrotation Zrotation
							JOINT RightHandThumb1
							{
								OFFSET -3.791161 -1.249054 3.194327
								CHANNELS 6 Xposition Yposition Zposition Xrotation Yrotation Zrotation
								JOINT RightHandThumb2
								{
									OFFSET -3.559998 0.000000 0.000015
									CHANNELS 6 Xposition Yposition Zposition Xrotation Yrotation Zrotation
									JOINT RightHandThumb3
									{
										OFFSET -2.582520 0.000000 0.000011
										CHANNELS 6 Xposition Yposition Zposition Xrotation Yrotation Zrotation
										End Site
										{
											OFFSET -0.000008 0.000000 -2.582520
										}
									}
								}
							}
							JOINT RightHandIndex1
							{
								OFFSET -9.811684 -0.000015 2.347322
								CHANNELS 6 Xposition Yposition Zposition Xrotation Yrotation Zrotation
								JOINT RightHandIndex2
								{
									OFFSET -3.256775 0.000000 0.000014
									CHANNELS 6 Xposition Yposition Zposition Xrotation Yrotation Zrotation
									JOINT RightHandIndex3
									{
										OFFSET -2.772133 0.000000 0.000012
										CHANNELS 6 Xposition Yposition Zposition Xrotation Yrotation Zrotation
										End Site
										{
											OFFSET 0.000000 -2.772125 0.000000
										}
									}
								}
							}
							JOINT RightHandMiddle1
							{
								OFFSET -10.341537 -0.000015 0.313044
								CHANNELS 6 Xposition Yposition Zposition Xrotation Yrotation Zrotation
								JOINT RightHandMiddle2
								{
									OFFSET -3.430656 0.000000 0.000015
									CHANNELS 6 Xposition Yposition Zposition Xrotation Yrotation Zrotation
									JOINT RightHandMiddle3
									{
										OFFSET -2.954636 0.000000 0.000013
										CHANNELS 6 Xposition Yposition Zposition Xrotation Yrotation Zrotation
										End Site
										{
											OFFSET 0.000000 -2.954636 0.000000
										}
									}
								}
							}
							JOINT RightHandRing1
							{
								OFFSET -9.988403 -0.000015 -1.780128
								CHANNELS 6 Xposition Yposition Zposition Xrotation Yrotation Zrotation
								JOINT RightHandRing2
								{
									OFFSET -3.241203 0.000000 0.000014
									CHANNELS 6 Xposition Yposition Zposition Xrotation Yrotation Zrotation
									JOINT RightHandRing3
									{
										OFFSET -2.763329 0.000000 0.000012
										CHANNELS 6 Xposition Yposition Zposition Xrotation Yrotation Zrotation
										End Site
										{
											OFFSET 0.000000 -2.763336 0.000000
										}
									}
								}
							}
							JOINT RightHandPinky1
							{
								OFFSET -8.983955 -0.000015 -3.651913
								CHANNELS 6 Xposition Yposition Zposition Xrotation Yrotation Zrotation
								JOINT RightHandPinky2
								{
									OFFSET -2.784111 0.000000 0.000012
									CHANNELS 6 Xposition Yposition Zposition Xrotation Yrotation Zrotation
									JOINT RightHandPinky3
									{
										OFFSET -1.994583 0.000000 0.000009
										CHANNELS 6 Xposition Yposition Zposition Xrotation Yrotation Zrotation
										End Site
										{
											OFFSET 0.000000 -1.994583 0.000000
										}
									}
								}
							}
						}
					}
				}
			}
		}
	}
	JOINT LeftUpLeg
	{
		OFFSET 9.994125 -0.000015 0.000017
		CHANNELS 6 Xposition Yposition Zposition Xrotation Yrotation Zrotation
		JOINT LeftLeg
		{
			OFFSET -0.000064 -41.202610 0.000001
			CHANNELS 6 Xposition Yposition Zposition Xrotation Yrotation Zrotation
			JOINT LeftFoot
			{
				OFFSET -0.000062 -40.704849 0.000002
				CHANNELS 6 Xposition Yposition Zposition Xrotation Yrotation Zrotation
				JOINT LeftToeBase
				{
					OFFSET -0.000036 -8.953565 12.877190
					CHANNELS 6 Xposition Yposition Zposition Xrotation Yrotation Zrotation
					JOINT LeftToeNub
					{
						OFFSET 0.000000 0.000000 5.535665
						CHANNELS 6 Xposition Yposition Zposition Xrotation Yrotation Zrotation
						End Site
						{
							OFFSET 0.000009 5.535664 0.000000
						}
					}
				}
			}
		}
	}
	JOINT RightUpLeg
	{
		OFFSET -9.994125 0.000015 -0.000009
		CHANNELS 6 Xposition Yposition Zposition Xrotation Yrotation Zrotation
		JOINT RightLeg
		{
			OFFSET -0.000064 -41.202610 0.000000
			CHANNELS 6 Xposition Yposition Zposition Xrotation Yrotation Zrotation
			JOINT RightFoot
			{
				OFFSET -0.000062 -40.704849 -0.000000
				CHANNELS 6 Xposition Yposition Zposition Xrotation Yrotation Zrotation
				JOINT RightToeBase
				{
					OFFSET -0.000036 -8.953565 12.877190
					CHANNELS 6 Xposition Yposition Zposition Xrotation Yrotation Zrotation
					JOINT RightToeNub
					{
						OFFSET 0.000000 0.000000 5.535664
						CHANNELS 6 Xposition Yposition Zposition Xrotation Yrotation Zrotation
						End Site
						{
							OFFSET 0.000009 5.535664 0.000000
						}
					}
				}
			}
		}
	}
}
MOTION
Frames: 4
Frame Time: 0.008333
0.170032 86.409668 195.052917 2.838652 4.815407 -0.684036 0.000015 10.005951 0.000003 -2.846934 -4.176947 -0.135174 -0.000001 21.665001 0.000008 1.231385 -6.010813 -1.076741 -0.000004 25.832993 0.000020 -2.117378 1.031016 2.153040 -0.000000 13.820378 2.436916 10.175746 1.453575 2.964517 0.000002 21.600510 0.000002 0.000002 0.000000 -0.000000 3.044997 21.665028 0.000008 -4.892094 0.463913 5.445098 15.550009 0.000009 0.000016 35.819841 -43.980558 -24.208195 26.969994 0.000049 0.000007 0.000010 -115.258841 0.000006 26.562435 -0.000028 -0.000045 -122.690073 -1.158667 -7.058475 3.791191 -1.249024 3.194294 0.000000 0.000000 0.000000 3.560013 0.000015 -0.000022 0.000000 -0.000002 -0.000000 2.582527 0.000016 -0.000007 -0.000000 -0.000001 0.000000 9.811707 0.000015 2.347265 0.000000 -0.000001 0.000000 3.256776 0.000015 -0.000025 0.000000 0.000001 -0.000000 2.772132 0.000015 -0.000024 0.000000 -0.000001 0.000000 10.341553 0.000030 0.312966 -0.000000 -0.000001 0.000000 3.430665 -0.000000 -0.000005 0.000001 0.000001 -0.000000 2.954644 -0.000001 0.000004 0.000001 0.000001 -0.000000 9.988419 0.000030 -1.780203 0.000000 -0.000001 0.000000 3.241226 0.000015 -0.000010 -0.000000 0.000001 -0.000000 2.763344 0.000015 -0.000024 0.000001 0.000001 -0.000000 8.983962 0.000015 -3.651957 0.000000 -0.000001 0.000000 2.784127 0.000015 -0.000002 0.000001 0.000001 -0.000000 1.994614 0.000015 -0.000006 0.000000 0.000001 -0.000000 -3.045001 21.665005 0.000012 -3.744969 6.525074 -7.785240 -15.550006 0.000093 0.000015 -39.440750 33.409160 30.921704 -26.970013 0.000031 0.000107 0.000222 108.614816 -0.000307 -26.562424 -0.000016 0.000110 -30.669595 13.420566 15.630688 -3.791165 -1.249024 3.194350 0.000000 -0.000000 -0.000001 -3.560008 0.000032 0.000009 -0.000000 -0.000000 0.000001 -2.582536 0.000032 -0.000002 -0.000000 -0.000000 0.000000 -9.811695 0.000016 2.347337 -0.000000 -0.000001 -0.000002 -3.256786 0.000031 0.000006 0.000000 -0.000000 -0.000001 -2.772143 0.000030 0.000024 -0.000002 -0.000000 0.000001 -10.341549 0.000001 0.313064 -0.000000 -0.000001 -0.000002 -3.430655 0.000032 0.000014 -0.000000 -0.000001 -0.000000 -2.954647 -0.000000 0.000037 -0.000001 -0.000000 0.000001 -9.988410 0.000016 -1.780108 -0.000001 -0.000000 -0.000000 -3.241210 0.000032 0.000023 -0.000001 -0.000000 -0.000000 -2.763340 0.000015 -0.000003 -0.000001 -0.000000 0.000001 -8.983969 0.000016 -3.651904 0.000000 -0.000000 -0.000001 -2.784121 0.000000 0.000008 -0.000001 -0.000001 0.000001 -1.994601 0.000046 0.000008 -0.000001 -0.000001 0.000001 9.994125 -0.000005 0.000029 -23.541760 -6.437696 -2.070093 -0.000066 -41.202606 -0.000004 45.220610 -0.000032 0.000101 -0.000060 -40.704857 -0.000015 -21.847899 11.101379 0.540639 -0.000040 -8.953566 12.877227 -5.881490 1.888326 -0.834216 -0.000007 0.000002 5.535680 -0.000000 0.000000 -0.000000 -9.994124 0.000012 -0.000023 -22.495776 -4.340308 -2.815932 -0.000065 -41.202610 0.000008 43.026128 -0.000033 0.000095 -0.000063 -40.704849 0.000029 -21.408536 -2.751550 0.213464 -0.000037 -8.953566 12.877210 -7.909464 -1.458815 -0.033554 0.000001 0.000000 5.535658 0.000000 -0.000000 0.000000 
0.201889 85.981079 194.960617 2.539485 4.733490 -0.678708 0.000014 10.005951 -0.000011 -2.286186 -4.229956 -0.151217 -0.000001 21.664993 -0.000005 1.352072 -6.077735 -1.085894 -0.000001 25.833008 0.000005 -2.770839 1.116366 2.414689 -0.000000 13.820398 2.436882 10.153245 1.578318 2.902023 0.000001 21.600510 -0.000001 0.000001 -0.000000 0.000000 3.044998 21.665016 0.000011 -4.877381 0.263170 5.443427 15.550010 0.000012 0.000025 38.569692 -44.608751 -21.588597 26.969999 0.000097 0.000017 -0.000005 -116.298942 0.000009 26.562431 -0.000028 -0.000002 -124.238272 -0.659252 -7.436333 3.791183 -1.249039 3.194328 0.000001 -0.000003 0.000000 3.559997 0.000015 -0.000029 -0.000000 -0.000002 0.000000 2.582520 0.000015 -0.000033 0.000000 -0.000001 0.000000 9.811713 -0.000000 2.347292 0.000001 -0.000002 0.000000 3.256775 0.000015 -0.000004 0.000000 -0.000002 0.000000 2.772140 0.000015 -0.000001 0.000001 -0.000002 0.000000 10.341545 -0.000000 0.312995 0.000000 -0.000002 0.000000 3.430656 0.000000 0.000006 0.000000 -0.000002 0.000000 2.954635 0.000015 0.000006 0.000000 -0.000002 0.000000 9.988410 -0.000000 -1.780177 0.000001 -0.000002 0.000000 3.241211 0.000000 -0.000001 0.000000 -0.000002 0.000000 2.763344 -0.000000 -0.000011 0.000000 -0.000002 0.000000 8.983948 -0.000000 -3.651937 0.000000 -0.000002 0.000000 2.784111 -0.000000 -0.000011 0.000001 -0.000002 0.000000 1.994583 0.000000 -0.000018 0.000000 -0.000002 0.000000 -3.044997 21.664997 0.000007 -3.659656 6.768940 -8.066708 -15.550003 0.000068 -0.000008 -39.297746 34.338991 29.449296 -26.970007 0.000034 0.000104 0.000226 108.275963 -0.000319 -26.562450 -0.000011 0.000124 -32.082631 13.496208 16.381061 -3.791170 -1.249023 3.194339 0.000000 0.000000 0.000001 -3.560009 0.000014 0.000013 0.000001 -0.000000 0.000001 -2.582524 0.000031 0.000006 -0.000001 -0.000001 -0.000001 -9.811689 0.000016 2.347334 0.000001 -0.000000 -0.000001 -3.256781 -0.000016 0.000015 0.000001 -0.000000 -0.000000 -2.772148 0.000015 0.000035 -0.000000 -0.000001 0.000000 -10.341536 0.000016 0.313045 0.000001 -0.000000 -0.000001 -3.430661 0.000030 0.000003 0.000001 -0.000000 -0.000001 -2.954640 0.000032 0.000014 0.000000 -0.000001 -0.000001 -9.988402 0.000015 -1.780130 0.000001 -0.000000 -0.000000 -3.241210 0.000017 0.000009 0.000001 -0.000000 -0.000000 -2.763334 0.000032 0.000032 0.000001 -0.000001 -0.000001 -8.983959 0.000001 -3.651896 0.000001 -0.000000 -0.000001 -2.784112 0.000015 0.000019 0.000000 -0.000000 0.000000 -1.994599 0.000030 0.000009 0.000000 -0.000000 0.000000 9.994126 -0.000004 0.000005 -24.066194 -6.196392 -2.106090 -0.000063 -41.202606 0.000000 46.721380 -0.000032 0.000104 -0.000064 -40.704842 0.000006 -22.485999 11.029052 0.744267 -0.000035 -8.953567 12.877188 -5.872184 1.922943 -0.842616 0.000001 -0.000001 5.535687 -0.000000 0.000002 0.000000 -9.994128 0.000011 -0.000027 -23.103238 -4.179086 -2.826600 -0.000064 -41.202595 -0.000004 44.636540 -0.000032 0.000099 -0.000062 -40.704853 -0.000005 -21.897236 -2.802995 0.077222 -0.000037 -8.953565 12.877212 -8.156928 -1.573114 0.001948 -0.000002 0.000001 5.535694 -0.000000 0.000000 -0.000000 
0.228932 85.584152 194.859924 2.352819 4.735908 -0.701306 0.000014 10.005951 0.000017 -1.871277 -4.352584 -0.154104 -0.000001 21.665001 0.000010 1.451006 -6.200479 -1.082498 -0.000002 25.833023 -0.000002 -3.308545 1.223956 2.547823 0.000000 13.820418 2.436895 10.114068 1.708426 2.993274 -0.000002 21.600510 0.000012 0.000001 -0.000000 -0.000000 3.044998 21.665016 0.000004 -4.853617 0.241352 5.593548 15.550004 0.000010 0.000027 40.075288 -44.750979 -19.928025 26.970005 0.000064 0.000025 0.000012 -117.143482 0.000004 26.562449 -0.000015 -0.000022 -124.607007 0.132679 -8.492346 3.791191 -1.249024 3.194312 0.000000 0.000001 -0.000000 3.559997 0.000015 -0.000024 0.000000 -0.000002 0.000000 2.582519 -0.000000 -0.000003 0.000001 -0.000002 0.000000 9.811707 -0.000000 2.347282 0.000000 0.000002 0.000000 3.256775 0.000015 0.000004 -0.000000 0.000002 0.000000 2.772133 -0.000015 -0.000006 0.000000 0.000002 0.000000 10.341537 0.000015 0.312960 -0.000000 0.000002 -0.000000 3.430656 -0.000000 0.000012 -0.000000 0.000002 -0.000000 2.954636 0.000000 0.000005 -0.000000 0.000002 0.000000 9.988426 0.000015 -1.780172 0.000000 0.000002 -0.000000 3.241211 0.000015 -0.000013 0.000000 0.000002 -0.000000 2.763336 -0.000000 -0.000036 0.000000 0.000002 0.000000 8.983955 -0.000000 -3.651942 -0.000000 0.000002 -0.000000 2.784119 -0.000000 -0.000014 0.000000 0.000002 -0.000000 1.994591 0.000015 -0.000001 -0.000000 0.000002 0.000000 -3.044998 21.665012 -0.000012 -3.587252 7.248400 -8.155277 -15.550005 0.000070 0.000011 -38.960666 34.642801 28.086665 -26.969992 0.000048 0.000117 0.000222 108.059221 -0.000314 -26.562435 -0.000016 0.000105 -33.997516 13.356096 16.915565 -3.791158 -1.249038 3.194307 -0.000000 -0.000000 -0.000001 -3.560018 0.000016 0.000001 0.000001 0.000000 -0.000001 -2.582533 0.000030 0.000010 0.000001 0.000000 -0.000001 -9.811695 0.000001 2.347306 0.000000 -0.000000 -0.000001 -3.256780 0.000031 -0.000000 0.000000 0.000000 -0.000001 -2.772139 0.000001 0.000010 0.000000 -0.000000 -0.000001 -10.341534 -0.000014 0.313036 0.000000 -0.000001 -0.000001 -3.430662 0.000032 0.000013 0.000001 0.000000 -0.000001 -2.954631 0.000001 0.000019 -0.000000 -0.000000 -0.000002 -9.988404 -0.000000 -1.780128 -0.000000 -0.000001 -0.000003 -3.241202 0.000016 0.000009 0.000001 0.000000 -0.000001 -2.763335 0.000032 0.000027 -0.000000 0.000000 -0.000001 -8.983965 -0.000001 -3.651928 0.000000 -0.000000 -0.000002 -2.784125 0.000031 0.000020 0.000000 -0.000000 -0.000000 -1.994590 0.000016 0.000034 0.000000 -0.000000 -0.000000 9.994126 -0.000005 0.000037 -24.612411 -6.069664 -2.143985 -0.000064 -41.202621 0.000004 48.036485 -0.000031 0.000107 -0.000062 -40.704849 -0.000001 -23.097922 10.956481 0.932674 -0.000036 -8.953567 12.877175 -5.866918 1.956200 -0.850616 0.000005 0.000000 5.535680 0.000000 -0.000001 -0.000000 -9.994127 0.000015 -0.000011 -23.718727 -4.262057 -2.908367 -0.000067 -41.202606 -0.000000 46.044183 -0.000032 0.000103 -0.000063 -40.704872 -0.000003 -22.347208 -2.707147 -0.013435 -0.000036 -8.953564 12.877222 -8.411879 -1.560657 0.003488 -0.000002 -0.000002 5.535669 -0.000000 0.000001 0.000000 
0.254127 85.284271 194.757004 2.371889 4.761383 -0.755235 0.000015 10.005943 0.000003 -1.695848 -4.362778 -0.134436 -0.000001 21.665001 -0.000019 1.515086 -6.230097 -1.063724 -0.000000 25.832977 0.000034 -3.728579 1.211591 2.576227 -0.000001 13.820409 2.436897 10.039528 1.701836 3.133109 -0.000002 21.600525 -0.000024 0.000001 0.000000 0.000000 3.044996 21.665037 0.000024 -4.831115 0.217751 5.733547 15.550008 0.000021 0.000013 40.227734 -44.354859 -19.171424 26.969990 0.000080 0.000024 0.000004 -117.872946 -0.000003 26.562437 0.000006 -0.000013 -123.493386 0.633042 -9.764585 3.791191 -1.249023 3.194271 0.000000 -0.000001 -0.000000 3.560006 0.000015 -0.000019 -0.000000 0.000000 -0.000000 2.582528 0.000015 -0.000017 0.000000 -0.000000 -0.000000 9.811707 0.000015 2.347245 0.000000 0.000000 -0.000000 3.256775 0.000030 -0.000032 -0.000000 0.000000 -0.000000 2.772141 0.000015 -0.000024 0.000000 0.000000 -0.000000 10.341545 0.000000 0.312940 -0.000000 0.000000 -0.000000 3.430657 0.000030 -0.000016 -0.000000 0.000000 -0.000000 2.954636 0.000015 -0.000033 -0.000000 0.000000 -0.000000 9.988420 0.000000 -1.780200 0.000000 0.000000 -0.000000 3.241204 0.000015 -0.000023 -0.000000 0.000000 -0.000000 2.763329 0.000015 -0.000022 -0.000000 0.000000 -0.000000 8.983955 0.000000 -3.651993 -0.000000 0.000000 -0.000000 2.784112 0.000030 -0.000040 0.000000 0.000000 -0.000000 1.994591 0.000015 -0.000020 0.000000 0.000000 -0.000000 -3.044999 21.665018 0.000021 -3.551815 7.391580 -8.235652 -15.550008 0.000070 -0.000018 -38.449997 34.545140 27.183639 -26.970016 0.000016 0.000122 0.000225 107.992579 -0.000315 -26.562426 -0.000009 0.000103 -34.750298 13.964113 16.102004 -3.791168 -1.249009 3.194331 -0.000001 -0.000000 0.000000 -3.560005 0.000015 0.000044 0.000001 0.000000 0.000000 -2.582527 0.000000 0.000002 -0.000001 -0.000000 -0.000000 -9.811700 0.000030 2.347325 0.000001 -0.000000 0.000000 -3.256786 -0.000000 0.000017 0.000001 -0.000001 0.000001 -2.772149 0.000032 -0.000003 -0.000001 -0.000000 0.000000 -10.341546 -0.000000 0.313054 0.000000 -0.000000 0.000000 -3.430664 0.000030 0.000033 0.000001 -0.000001 -0.000000 -2.954651 0.000033 -0.000012 -0.000000 0.000000 -0.000000 -9.988409 0.000015 -1.780120 0.000000 -0.000000 -0.000001 -3.241211 0.000014 0.000001 0.000001 -0.000000 0.000000 -2.763336 0.000017 -0.000018 -0.000001 -0.000000 0.000000 -8.983970 0.000030 -3.651906 0.000001 -0.000000 -0.000000 -2.784125 0.000046 0.000020 -0.000002 0.000000 -0.000000 -1.994590 0.000031 -0.000023 -0.000002 0.000000 -0.000000 9.994127 -0.000001 0.000015 -25.186324 -5.941115 -2.121134 -0.000064 -41.202602 0.000012 49.014541 -0.000031 0.000110 -0.000062 -40.704845 0.000011 -23.577224 10.808043 1.024015 -0.000038 -8.953564 12.877233 -5.891376 1.928828 -0.840805 0.000003 -0.000001 5.535678 -0.000000 0.000000 -0.000000 -9.994126 0.000014 -0.000016 -24.319437 -4.497417 -3.027605 -0.000065 -41.202606 0.000007 47.034803 -0.000032 0.000105 -0.000063 -40.704857 -0.000010 -22.715592 -2.512499 -0.028184 -0.000036 -8.953563 12.877221 -8.570326 -1.502766 -0.008986 -0.000001 -0.000001 5.535667 -0.000000 0.000000 0.000000 
